<svg width="20" height="31" viewBox="0 0 20 31" fill="none" xmlns="http://www.w3.org/2000/svg">
<path d="M17.0125 30.3718C16.1842 30.3718 15.4812 29.9838 14.9037 29.2077C14.3271 28.4305 14.0387 27.487 14.0387 26.3771C14.0387 26.2096 14.0937 25.7869 14.2037 25.1091L5.2075 17.952C4.9375 18.3697 4.60708 18.6974 4.21625 18.9352C3.82542 19.1731 3.40583 19.292 2.9575 19.292C2.13583 19.292 1.4375 18.9001 0.8625 18.1162C0.2875 17.3323 0 16.3927 0 15.2972C0 14.2018 0.2875 13.2622 0.8625 12.4783C1.4375 11.6944 2.13583 11.3025 2.9575 11.3025C3.405 11.3025 3.82458 11.4214 4.21625 11.6592C4.60792 11.8971 4.93833 12.2254 5.2075 12.6441L14.205 5.51718C14.1467 5.30056 14.1046 5.0856 14.0787 4.87233C14.0521 4.65793 14.0387 4.43907 14.0387 4.21574C14.0387 3.10693 14.3292 2.16393 14.91 1.38675C15.4908 0.610687 16.1958 0.222656 17.025 0.222656C17.8542 0.222656 18.5575 0.611804 19.135 1.3901C19.7125 2.16839 20.0008 3.11307 20 4.22412C19.9992 5.33517 19.7096 6.27761 19.1312 7.05144C18.5529 7.82527 17.8487 8.21163 17.0187 8.21051C16.5671 8.21051 16.1504 8.08656 15.7687 7.83867C15.3871 7.59078 15.0621 7.25746 14.7937 6.83872L5.795 13.9958C5.85333 14.2124 5.89542 14.4279 5.92125 14.6423C5.94792 14.8556 5.96125 15.0739 5.96125 15.2972C5.96125 15.5206 5.94792 15.7389 5.92125 15.9521C5.89458 16.1654 5.85292 16.3809 5.79625 16.5987L14.7937 23.7557C15.0629 23.337 15.3879 23.0037 15.7687 22.7558C16.1504 22.5079 16.5671 22.384 17.0187 22.384C17.8471 22.384 18.5512 22.7726 19.1312 23.5497C19.7104 24.3291 20 25.2744 20 26.3854C20 27.4965 19.7096 28.4389 19.1287 29.2127C18.5479 29.9866 17.8417 30.3729 17.0125 30.3718ZM17.0187 28.6969C17.5096 28.6969 17.9208 28.4747 18.2525 28.0302C18.5842 27.5858 18.75 27.0353 18.75 26.3787C18.75 25.7221 18.5842 25.1711 18.2525 24.7255C17.9208 24.28 17.51 24.0578 17.02 24.0589C16.53 24.06 16.1187 24.2822 15.7862 24.7255C15.4537 25.1689 15.2879 25.7194 15.2887 26.3771C15.2896 27.0347 15.4554 27.5858 15.7862 28.0302C16.1171 28.4747 16.5271 28.6969 17.0187 28.6969ZM2.9575 17.6154C3.45417 17.6154 3.87083 17.3932 4.2075 16.9487C4.54333 16.5043 4.71125 15.9538 4.71125 15.2972C4.71125 14.6407 4.54333 14.0902 4.2075 13.6457C3.87167 13.2013 3.455 12.9791 2.9575 12.9791C2.47333 12.9791 2.06792 13.2013 1.74125 13.6457C1.41458 14.0902 1.25083 14.6407 1.25 15.2972C1.24917 15.9538 1.41292 16.5049 1.74125 16.9504C2.06958 17.396 2.475 17.6176 2.9575 17.6154ZM17.02 6.53556C17.51 6.53556 17.9208 6.31334 18.2525 5.86892C18.5842 5.4245 18.75 4.87344 18.75 4.21574C18.75 3.55805 18.5842 3.00754 18.2525 2.56424C17.9208 2.12094 17.51 1.89873 17.02 1.89761C16.53 1.89649 16.1187 2.1187 15.7862 2.56424C15.4537 3.00978 15.2879 3.56084 15.2887 4.21742C15.2896 4.874 15.4554 5.4245 15.7862 5.86892C16.1171 6.31334 16.5283 6.53556 17.02 6.53556Z" fill="black"/>
</svg>
